<?xml version="1.0" encoding="utf-8"?>
<!-- Generator: Adobe Illustrator 27.6.1, SVG Export Plug-In . SVG Version: 6.00 Build 0)  -->
<svg version="1.1" id="Layer_1" xmlns="http://www.w3.org/2000/svg" xmlns:xlink="http://www.w3.org/1999/xlink" x="0px" y="0px"
	 viewBox="0 0 1366 768" style="enable-background:new 0 0 1366 768;" xml:space="preserve">
<g>
	<path d="M708.56,295.79v-26.22c10.85-1.8,19.15-11.22,19.15-22.57c0-12.63-10.27-22.9-22.9-22.9s-22.9,10.27-22.9,22.9
		c0,11.35,8.31,20.77,19.16,22.57v26.22c-31.83,0.95-60.69,13.94-82.16,34.57l-17.55-15.61l7.08-7.55c1.41-1.51,1.34-3.88-0.17-5.29
		c-1.51-1.41-3.88-1.34-5.29,0.17l-19.99,21.32c-1.41,1.51-1.34,3.88,0.17,5.29c0.72,0.68,1.64,1.01,2.56,1.01
		c1,0,1.99-0.4,2.73-1.18l7.78-8.3l17.42,15.5c-20.45,22.14-32.97,51.71-32.97,84.15c0,2.07,1.68,3.74,3.74,3.74
		s3.74-1.68,3.74-3.74c0-64.32,52.33-116.65,116.65-116.65c64.31,0,116.64,52.33,116.64,116.65c0,64.31-52.32,116.64-116.64,116.64
		c-2.07,0-3.74,1.68-3.74,3.74c0,2.07,1.68,3.74,3.74,3.74c68.44,0,124.12-55.68,124.12-124.12
		C828.96,352.67,775.29,297.77,708.56,295.79z M689.41,247.01c0-8.5,6.91-15.41,15.41-15.41s15.41,6.91,15.41,15.41
		c0,8.5-6.91,15.41-15.41,15.41S689.41,255.51,689.41,247.01z"/>
	<path d="M690.63,419.86c0,7.83,6.37,14.2,14.2,14.2s14.2-6.37,14.2-14.2c0-6.44-4.32-11.88-10.2-13.61l-0.51-60.15
		c-0.02-2.06-1.69-3.71-3.74-3.71c-0.01,0-0.02,0-0.03,0c-2.07,0.02-3.73,1.71-3.71,3.78l0.51,59.96
		C695.19,407.69,690.63,413.24,690.63,419.86z M704.83,413.16c0.07,0,0.14,0.01,0.22,0.01c0.02,0,0.04,0.01,0.06,0.01
		c0.01,0,0.02,0,0.03,0c0,0,0,0,0.01,0c3.55,0.17,6.39,3.1,6.39,6.69c0,3.7-3.01,6.71-6.71,6.71c-3.7,0-6.71-3.01-6.71-6.71
		C698.12,416.16,701.13,413.16,704.83,413.16z"/>
	<path d="M578.52,492.73c-1.63-1.64-3.63-3.11-6.01-4.39c2.47-2.07,4.36-4.2,5.69-6.37c1.33-2.18,1.99-4.79,1.99-7.84
		c0-2.31-0.46-4.48-1.37-6.49c-0.91-2.01-2.27-3.78-4.07-5.3c-1.8-1.52-3.91-2.69-6.35-3.5c-2.44-0.81-5.13-1.21-8.09-1.21
		c-3.38,0-6.44,0.48-9.18,1.44c-2.74,0.96-5.03,2.23-6.88,3.81c-1.84,1.58-3.24,3.25-4.2,5c-0.96,1.75-1.44,3.42-1.44,5
		c0,1.64,0.51,2.96,1.53,3.95c1.02,0.99,2.14,1.48,3.36,1.48c1.04,0,1.95-0.18,2.74-0.55c0.79-0.37,1.34-0.87,1.64-1.51
		c0.52-1.19,1.09-2.45,1.71-3.79c0.62-1.34,1.29-2.44,1.99-3.29c0.7-0.85,1.65-1.54,2.86-2.06c1.2-0.52,2.73-0.78,4.59-0.78
		c2.74,0,4.92,0.85,6.53,2.54c1.61,1.69,2.42,3.71,2.42,6.05c0,3.08-1.01,5.44-3.04,7.08c-2.03,1.64-4.44,2.47-7.24,2.47h-1.87
		c-2.16,0-3.79,0.45-4.89,1.35c-1.1,0.9-1.64,2.08-1.64,3.54c0,1.49,0.46,2.66,1.37,3.5c0.91,0.84,2.21,1.26,3.88,1.26
		c0.37,0,1.19-0.06,2.47-0.18c1.28-0.12,2.22-0.18,2.83-0.18c3.47,0,6.18,1.01,8.13,3.04c1.95,2.03,2.92,4.82,2.92,8.38
		c0,2.41-0.57,4.52-1.71,6.35c-1.14,1.83-2.59,3.21-4.34,4.13c-1.75,0.93-3.57,1.39-5.46,1.39c-3.29,0-5.84-1.03-7.65-3.08
		c-1.81-2.06-3.51-5.2-5.09-9.43c-0.24-0.7-0.76-1.3-1.55-1.8c-0.79-0.5-1.61-0.75-2.47-0.75c-1.71,0-3.13,0.54-4.27,1.62
		c-1.14,1.08-1.71,2.51-1.71,4.27c0,1.37,0.48,3.11,1.44,5.21c0.96,2.1,2.38,4.13,4.25,6.1c1.87,1.96,4.26,3.6,7.15,4.91
		c2.89,1.31,6.17,1.96,9.82,1.96c3.59,0,6.88-0.57,9.85-1.71c2.97-1.14,5.54-2.73,7.7-4.75c2.16-2.02,3.8-4.33,4.91-6.92
		c1.11-2.59,1.67-5.27,1.67-8.04c0-2.31-0.41-4.47-1.23-6.46C581.38,496.2,580.15,494.38,578.52,492.73z"/>
	<path d="M630.47,463.47c-1.94-1.96-4.18-3.46-6.74-4.48c-2.56-1.02-5.41-1.53-8.54-1.53c-4.75,0-8.84,1.15-12.27,3.45
		c-3.43,2.3-6.04,5.64-7.84,10.03c-1.04,2.65-1.8,5.82-2.28,9.5c-0.49,3.69-0.73,7.83-0.73,12.43c0,3.56,0.22,6.88,0.66,9.94
		c0.44,3.06,1.13,5.86,2.08,8.38c1.86,4.63,4.62,8.25,8.29,10.87c3.67,2.62,7.82,3.93,12.45,3.93c4.02,0,7.68-0.98,10.97-2.92
		c3.29-1.95,5.97-4.72,8.04-8.32c1.64-2.92,2.77-6.18,3.38-9.78c0.61-3.59,0.91-7.89,0.91-12.88c0-9.2-1.16-16.31-3.47-21.34
		C634.04,467.86,632.4,465.43,630.47,463.47z M625.38,505.43c-0.64,3.63-1.75,6.41-3.34,8.36c-1.58,1.95-3.78,2.92-6.58,2.92
		c-2.71,0-4.86-0.94-6.44-2.81c-1.58-1.87-2.71-4.64-3.38-8.29c-0.67-3.66-1.01-8.35-1.01-14.07c0-8.44,0.78-14.68,2.35-18.73
		c1.57-4.05,4.36-6.08,8.38-6.08c2.8,0,4.99,0.91,6.58,2.72c1.58,1.81,2.71,4.49,3.38,8.04c0.67,3.55,1,8.11,1,13.68
		C626.34,497.06,626.02,501.81,625.38,505.43z"/>
	<path d="M707.14,490.81c0.23,1.62,0.34,3.76,0.34,6.44v20.97c0,2.59,0.6,4.55,1.8,5.87c1.2,1.32,2.75,1.99,4.64,1.99
		c1.95,0,3.52-0.66,4.71-1.96c1.19-1.31,1.78-3.27,1.78-5.89v-24.35c0-4.84-0.53-8.39-1.6-10.65c-1.22-2.5-3.06-4.42-5.53-5.76
		c-2.47-1.34-5.41-2.01-8.82-2.01c-2.92,0-5.59,0.62-8,1.85c-2.41,1.23-4.66,3.13-6.76,5.69c-1.46-2.53-3.32-4.42-5.57-5.67
		c-2.25-1.25-4.95-1.87-8.09-1.87c-3.02,0-5.76,0.61-8.22,1.83c-2.47,1.22-4.78,3.12-6.94,5.71v-1.19c0-2.01-0.57-3.59-1.71-4.73
		c-1.14-1.14-2.57-1.71-4.27-1.71c-1.77,0-3.19,0.61-4.27,1.83c-1.08,1.22-1.62,3-1.62,5.35v35.68c0,2.59,0.6,4.55,1.81,5.87
		c1.2,1.32,2.75,1.99,4.64,1.99c1.92,0,3.46-0.66,4.64-1.99c1.17-1.33,1.76-3.28,1.76-5.87v-16.86c0-5.24,0.65-9.26,1.94-12.06
		c1.29-2.8,3.98-4.2,8.06-4.2c2.04,0,3.53,0.56,4.48,1.67c0.94,1.11,1.52,2.54,1.74,4.27c0.21,1.74,0.32,4.17,0.32,7.31v19.87
		c0,2.62,0.59,4.58,1.76,5.89c1.17,1.31,2.7,1.96,4.59,1.96c1.95,0,3.52-0.66,4.71-1.96c1.19-1.31,1.78-3.27,1.78-5.89v-16.58
		c0-5.33,0.46-9.05,1.37-11.15c0.82-1.64,1.97-2.95,3.45-3.93c1.48-0.97,3.04-1.46,4.68-1.46c2.04,0,3.56,0.55,4.57,1.64
		C706.29,487.84,706.91,489.2,707.14,490.81z"/>
</g>
</svg>
