<?xml version="1.0" encoding="utf-8"?>
<!-- Generator: Adobe Illustrator 27.6.1, SVG Export Plug-In . SVG Version: 6.00 Build 0)  -->
<svg version="1.1" id="Layer_1" xmlns="http://www.w3.org/2000/svg" xmlns:xlink="http://www.w3.org/1999/xlink" x="0px" y="0px"
	 viewBox="0 0 1366 768" style="enable-background:new 0 0 1366 768;" xml:space="preserve">
<g>
	<path d="M716.4,304.51v-22.82c9.76-1.77,17.18-10.31,17.18-20.57c0-11.54-9.39-20.93-20.93-20.93c-11.54,0-20.93,9.39-20.93,20.93
		c0,10.26,7.43,18.8,17.18,20.57v22.82c-28.38,0.94-54.11,12.51-73.33,30.85l-15.18-13.5l6.08-6.49c1.41-1.51,1.34-3.88-0.17-5.29
		c-1.51-1.41-3.88-1.34-5.29,0.17l-17.93,19.13c-1.41,1.51-1.34,3.88,0.17,5.29c0.72,0.68,1.64,1.01,2.56,1.01
		c1,0,1.99-0.4,2.73-1.18l6.73-7.17l15.06,13.39c-18.25,19.9-29.41,46.4-29.41,75.46c0,2.07,1.68,3.74,3.74,3.74
		s3.74-1.68,3.74-3.74c0-57.49,46.77-104.26,104.25-104.26c57.48,0,104.24,46.77,104.24,104.26c0,57.48-46.76,104.24-104.24,104.24
		c-2.07,0-3.74,1.68-3.74,3.74c0,2.07,1.68,3.74,3.74,3.74c61.61,0,111.73-50.12,111.73-111.73
		C824.4,355.82,776.29,306.49,716.4,304.51z M699.21,261.12c0-7.41,6.03-13.44,13.44-13.44c7.41,0,13.44,6.03,13.44,13.44
		s-6.03,13.44-13.44,13.44C705.24,274.56,699.21,268.53,699.21,261.12z"/>
	<path d="M699.54,416.18c0,7.23,5.89,13.12,13.12,13.12c7.23,0,13.12-5.89,13.12-13.12c0-5.85-3.85-10.82-9.16-12.5L716.17,350
		c-0.02-2.06-1.69-3.71-3.74-3.71c-0.01,0-0.02,0-0.03,0c-2.07,0.02-3.73,1.71-3.71,3.78l0.45,53.48
		C703.61,405.1,699.54,410.17,699.54,416.18z M712.66,410.54c3.11,0,5.63,2.53,5.63,5.63c0,3.11-2.53,5.63-5.63,5.63
		s-5.63-2.53-5.63-5.63C707.03,413.07,709.56,410.54,712.66,410.54z"/>
	<path d="M586.64,492.1c-1.27-0.57-2.96-0.86-5.06-0.86h-1.76v-31.72c0-4.75-2.08-7.13-6.23-7.13c-1.28,0-2.38,0.43-3.3,1.29
		c-0.92,0.86-2.08,2.25-3.5,4.16l-21.72,29.06c-0.6,0.79-1.11,1.46-1.52,2.01c-0.41,0.55-0.81,1.11-1.19,1.7
		c-0.38,0.59-0.67,1.15-0.86,1.68c-0.19,0.53-0.29,1.06-0.29,1.58c0,2.02,0.65,3.62,1.95,4.79c1.3,1.18,3.24,1.76,5.84,1.76h20.57
		v7.62c0,2.05,0.47,3.6,1.41,4.65c0.94,1.05,2.18,1.58,3.71,1.58c1.56,0,2.8-0.51,3.73-1.54c0.93-1.02,1.39-2.59,1.39-4.69v-7.62
		h2.5c2.08,0,3.63-0.36,4.67-1.09c1.04-0.72,1.56-1.88,1.56-3.46C588.55,493.93,587.91,492.68,586.64,492.1z M569.57,491.24h-17.62
		l17.62-23.81V491.24z"/>
	<path d="M631.21,479.01c-1.72-1.74-3.72-3.09-6-4.08c-2.28-0.98-4.73-1.48-7.36-1.48c-3.28,0-6.86,1.04-10.74,3.12l2.34-13.28
		h19.47c2.02,0,3.55-0.44,4.59-1.31c1.04-0.87,1.56-2.02,1.56-3.44c0-3.25-2.13-4.88-6.39-4.88h-21.64c-2.35,0-4.04,0.53-5.08,1.6
		c-1.04,1.07-1.75,2.77-2.13,5.12l-3.44,19.63c-0.3,1.72-0.45,2.65-0.45,2.79c0,1.23,0.52,2.33,1.56,3.3
		c1.04,0.97,2.23,1.46,3.57,1.46c1.23,0,2.79-0.72,4.69-2.15c1.9-1.43,3.35-2.44,4.36-3.01c1.01-0.57,2.69-0.86,5.04-0.86
		c1.91,0,3.65,0.46,5.2,1.37c1.56,0.92,2.8,2.3,3.73,4.16c0.93,1.86,1.39,4.1,1.39,6.72c0,2.43-0.43,4.6-1.29,6.52
		c-0.86,1.91-2.08,3.42-3.67,4.51c-1.58,1.09-3.43,1.64-5.53,1.64c-2.3,0-4.37-0.68-6.23-2.03c-1.86-1.35-3.33-3.24-4.43-5.68
		c-1.12-2.65-2.83-3.98-5.12-3.98c-1.34,0-2.45,0.48-3.34,1.43c-0.89,0.96-1.33,1.97-1.33,3.03c0,1.75,0.64,3.79,1.91,6.13
		c1.27,2.34,3.43,4.41,6.48,6.21c3.05,1.8,7.02,2.71,11.91,2.71c4.37,0,8.23-0.96,11.58-2.87c3.35-1.91,5.91-4.49,7.68-7.75
		c1.78-3.25,2.66-6.86,2.66-10.82c0-2.73-0.49-5.29-1.48-7.66C634.29,482.8,632.93,480.74,631.21,479.01z"/>
	<path d="M709.12,485.38c0-4.34-0.48-7.53-1.43-9.55c-1.09-2.24-2.75-3.96-4.96-5.16c-2.21-1.2-4.85-1.8-7.91-1.8
		c-2.62,0-5.01,0.55-7.17,1.66c-2.16,1.11-4.18,2.81-6.07,5.1c-1.31-2.27-2.98-3.96-5-5.08c-2.02-1.12-4.44-1.68-7.25-1.68
		c-2.7,0-5.16,0.55-7.38,1.64c-2.21,1.09-4.29,2.8-6.23,5.12v-1.07c0-1.8-0.51-3.22-1.54-4.24c-1.02-1.02-2.3-1.54-3.83-1.54
		c-1.58,0-2.86,0.55-3.83,1.64c-0.97,1.09-1.45,2.69-1.45,4.8v32.01c0,2.32,0.54,4.08,1.62,5.27c1.08,1.19,2.47,1.78,4.16,1.78
		c1.72,0,3.11-0.59,4.16-1.78c1.05-1.19,1.58-2.94,1.58-5.27V492.1c0-4.7,0.58-8.31,1.74-10.82c1.16-2.51,3.57-3.77,7.23-3.77
		c1.83,0,3.17,0.5,4.02,1.5c0.85,1,1.37,2.28,1.56,3.83c0.19,1.56,0.29,3.74,0.29,6.56v17.83c0,2.35,0.53,4.11,1.58,5.29
		c1.05,1.17,2.42,1.76,4.12,1.76c1.75,0,3.16-0.59,4.22-1.76c1.07-1.18,1.6-2.94,1.6-5.29v-14.88c0-4.78,0.41-8.11,1.23-10
		c0.74-1.48,1.77-2.65,3.09-3.52c1.32-0.87,2.73-1.31,4.2-1.31c1.83,0,3.2,0.49,4.1,1.48c0.9,0.98,1.46,2.2,1.66,3.65
		c0.2,1.45,0.31,3.38,0.31,5.78v18.81c0,2.32,0.54,4.08,1.62,5.27c1.08,1.19,2.47,1.78,4.16,1.78c1.75,0,3.16-0.59,4.22-1.76
		c1.07-1.18,1.6-2.94,1.6-5.29V485.38z"/>
</g>
</svg>
