<?xml version="1.0" encoding="utf-8"?>
<!-- Generator: Adobe Illustrator 27.6.1, SVG Export Plug-In . SVG Version: 6.00 Build 0)  -->
<svg version="1.1" id="Layer_1" xmlns="http://www.w3.org/2000/svg" xmlns:xlink="http://www.w3.org/1999/xlink" x="0px" y="0px"
	 viewBox="0 0 1366 768" style="enable-background:new 0 0 1366 768;" xml:space="preserve">
<g>
	<path d="M718.04,300.75v-24.29c10.23-1.78,18.03-10.7,18.03-21.43c0-12.01-9.77-21.78-21.78-21.78c-12.01,0-21.78,9.77-21.78,21.78
		c0,10.73,7.81,19.65,18.03,21.43v24.29c-29.87,0.95-56.95,13.13-77.14,32.46l-16.2-14.41l6.51-6.95c1.41-1.51,1.34-3.88-0.17-5.29
		c-1.51-1.41-3.88-1.34-5.29,0.17l-18.82,20.07c-1.41,1.51-1.34,3.88,0.17,5.29c0.72,0.68,1.64,1.01,2.56,1.01
		c1,0,1.99-0.4,2.73-1.18l7.18-7.66l16.08,14.3c-19.2,20.86-30.94,48.69-30.94,79.21c0,2.07,1.68,3.74,3.74,3.74
		s3.74-1.68,3.74-3.74c0-60.44,49.17-109.6,109.6-109.6c60.43,0,109.59,49.17,109.59,109.6c0,60.43-49.16,109.59-109.59,109.59
		c-2.07,0-3.74,1.68-3.74,3.74c0,2.07,1.68,3.74,3.74,3.74c64.56,0,117.08-52.52,117.08-117.08
		C831.39,354.46,780.88,302.73,718.04,300.75z M700.01,255.03c0-7.88,6.41-14.29,14.29-14.29c7.88,0,14.29,6.41,14.29,14.29
		c0,7.88-6.41,14.29-14.29,14.29C706.42,269.32,700.01,262.91,700.01,255.03z"/>
	<path d="M700.72,417.77c0,7.49,6.09,13.58,13.58,13.58s13.58-6.09,13.58-13.58c0-6.11-4.05-11.28-9.61-12.99l-0.48-56.46
		c-0.02-2.06-1.69-3.71-3.74-3.71c-0.01,0-0.02,0-0.03,0c-2.07,0.02-3.73,1.71-3.71,3.78l0.47,56.28
		C705,406.22,700.72,411.49,700.72,417.77z M714.31,411.67c0.07,0,0.14,0.01,0.21,0.01c0.02,0,0.03,0.01,0.05,0.01
		c0.01,0,0.02,0,0.03,0c0,0,0,0,0.01,0c3.22,0.16,5.8,2.82,5.8,6.08c0,3.36-2.73,6.1-6.1,6.1c-3.36,0-6.1-2.73-6.1-6.1
		C708.21,414.41,710.94,411.67,714.31,411.67z"/>
	<path d="M573.81,487.85c-1.74-1.88-3.76-3.33-6.07-4.34c-2.31-1.02-4.83-1.53-7.55-1.53c-2.84,0-5.41,0.56-7.7,1.68
		c-2.29,1.12-4.42,2.84-6.37,5.16c0.37-7.8,1.61-13.22,3.7-16.26c1.03-1.49,2.3-2.67,3.81-3.55c1.51-0.87,3.02-1.31,4.54-1.31
		c1.89,0,3.56,0.52,4.99,1.57c1.43,1.05,2.48,2.43,3.14,4.15c0.49,1.35,1.25,2.4,2.28,3.16c1.03,0.76,2.15,1.14,3.36,1.14
		c1.38,0,2.51-0.48,3.4-1.44c0.89-0.96,1.33-2.03,1.33-3.2c0-1.95-0.71-3.99-2.13-6.11c-1.42-2.12-3.53-3.9-6.32-5.33
		c-2.8-1.43-6.03-2.15-9.7-2.15c-3.81,0-7.21,0.72-10.19,2.15c-2.98,1.43-5.52,3.56-7.61,6.37c-2.09,2.81-3.7,6.35-4.82,10.62
		c-1.12,4.27-1.68,9.12-1.68,14.54c0,6.65,0.92,12.28,2.77,16.88c1.85,4.6,4.52,8.08,8.02,10.43c3.5,2.35,7.66,3.53,12.47,3.53
		c4.19,0,7.94-0.92,11.25-2.77c3.31-1.85,5.89-4.42,7.74-7.72c1.85-3.3,2.77-6.97,2.77-11.01c0-2.78-0.47-5.45-1.42-8
		C576.89,491.94,575.55,489.73,573.81,487.85z M564.93,511.98c-1.89,2.37-4.29,3.55-7.18,3.55c-3.04,0-5.56-1.29-7.57-3.87
		c-2.01-2.58-3.01-5.81-3.01-9.68c0-2.41,0.49-4.51,1.48-6.3c0.99-1.79,2.29-3.16,3.91-4.11c1.62-0.95,3.32-1.42,5.1-1.42
		c1.86,0,3.57,0.5,5.12,1.48c1.55,0.99,2.77,2.42,3.66,4.3c0.89,1.88,1.33,4.12,1.33,6.73
		C567.77,506.51,566.82,509.61,564.93,511.98z"/>
	<path d="M622.81,465.05c-1.82-1.85-3.94-3.26-6.34-4.22c-2.41-0.96-5.09-1.44-8.04-1.44c-4.47,0-8.32,1.08-11.55,3.25
		c-3.23,2.17-5.69,5.31-7.38,9.44c-0.98,2.5-1.69,5.48-2.15,8.95c-0.46,3.47-0.69,7.37-0.69,11.7c0,3.36,0.21,6.47,0.62,9.36
		c0.42,2.88,1.07,5.51,1.96,7.89c1.75,4.36,4.35,7.77,7.81,10.24c3.46,2.47,7.36,3.7,11.72,3.7c3.79,0,7.23-0.92,10.32-2.75
		c3.1-1.84,5.62-4.44,7.57-7.83c1.55-2.75,2.61-5.82,3.18-9.2c0.57-3.38,0.86-7.43,0.86-12.13c0-8.66-1.09-15.36-3.27-20.09
		C626.17,469.19,624.63,466.9,622.81,465.05z M618.01,504.56c-0.6,3.41-1.65,6.04-3.14,7.87c-1.49,1.84-3.56,2.75-6.19,2.75
		c-2.55,0-4.57-0.88-6.07-2.65c-1.49-1.76-2.55-4.37-3.18-7.81c-0.63-3.44-0.95-7.86-0.95-13.25c0-7.94,0.74-13.82,2.22-17.64
		c1.48-3.81,4.11-5.72,7.89-5.72c2.64,0,4.7,0.85,6.19,2.56c1.49,1.71,2.55,4.23,3.18,7.57c0.63,3.34,0.95,7.64,0.95,12.88
		C618.91,496.67,618.61,501.15,618.01,504.56z"/>
	<path d="M700.77,478.24c-2.32-1.26-5.09-1.89-8.3-1.89c-2.75,0-5.26,0.58-7.53,1.74c-2.27,1.16-4.39,2.95-6.37,5.35
		c-1.38-2.38-3.13-4.16-5.25-5.33c-2.12-1.18-4.66-1.76-7.61-1.76c-2.84,0-5.42,0.57-7.74,1.72c-2.32,1.15-4.5,2.94-6.54,5.38v-1.12
		c0-1.89-0.54-3.38-1.61-4.45c-1.08-1.08-2.42-1.61-4.02-1.61c-1.66,0-3,0.57-4.02,1.72c-1.02,1.15-1.53,2.82-1.53,5.03v33.59
		c0,2.44,0.57,4.28,1.7,5.53c1.13,1.25,2.59,1.87,4.37,1.87c1.81,0,3.26-0.62,4.37-1.87c1.1-1.25,1.66-3.09,1.66-5.53v-15.87
		c0-4.93,0.61-8.72,1.83-11.36c1.22-2.64,3.75-3.96,7.59-3.96c1.92,0,3.33,0.52,4.22,1.57c0.89,1.05,1.43,2.39,1.63,4.02
		c0.2,1.63,0.3,3.93,0.3,6.88v18.71c0,2.47,0.55,4.32,1.66,5.55c1.1,1.23,2.54,1.85,4.32,1.85c1.83,0,3.31-0.62,4.43-1.85
		c1.12-1.23,1.68-3.08,1.68-5.55v-15.61c0-5.02,0.43-8.52,1.29-10.5c0.77-1.55,1.86-2.78,3.25-3.7c1.39-0.92,2.86-1.38,4.41-1.38
		c1.92,0,3.36,0.52,4.3,1.55c0.95,1.03,1.53,2.31,1.74,3.83s0.32,3.54,0.32,6.06v19.74c0,2.44,0.57,4.28,1.7,5.53
		c1.13,1.25,2.59,1.87,4.37,1.87c1.83,0,3.31-0.62,4.43-1.85c1.12-1.23,1.68-3.08,1.68-5.55v-22.93c0-4.56-0.5-7.9-1.51-10.02
		C704.83,481.3,703.09,479.5,700.77,478.24z"/>
</g>
</svg>
